M48
; DRILL file {KiCad 8.0.6} date 2025-05-20T21:00:05-0400
; FORMAT={-:-/ absolute / metric / decimal}
; #@! TF.CreationDate,2025-05-20T21:00:05-04:00
; #@! TF.GenerationSoftware,Kicad,Pcbnew,8.0.6
; #@! TF.FileFunction,Plated,1,2,PTH
FMAT,2
METRIC
; #@! TA.AperFunction,Plated,PTH,ComponentDrill
T1C0.200
; #@! TA.AperFunction,Plated,PTH,ViaDrill
T2C0.300
%
G90
G05
T1
X95.741Y-55.788
X95.741Y-57.188
X96.441Y-55.088
X96.441Y-56.488
X96.441Y-57.888
X97.141Y-55.788
X97.141Y-57.188
X97.841Y-55.088
X97.841Y-56.488
X97.841Y-57.888
X98.541Y-55.788
X98.541Y-57.188
T2
X60.102Y-44.152
X60.102Y-45.252
X63.15Y-51.684
X63.52Y-55.793
X63.593Y-48.777
X65.27Y-56.694
X65.441Y-58.562
X67.445Y-55.793
X67.843Y-57.48
X69.095Y-55.793
X75.717Y-52.375
X77.978Y-53.645
X79.908Y-50.278
X79.908Y-54.878
X88.24Y-47.978
X89.891Y-48.768
X89.891Y-53.848
X89.891Y-55.118
X91.141Y-56.781
X91.389Y-53.248
X93.73Y-50.118
X101.035Y-53.248
X106.941Y-49.088
X106.941Y-49.987
X106.941Y-51.283
X107.391Y-48.768
X109.041Y-48.743
X109.372Y-47.978
X112.733Y-59.165
X117.324Y-53.585
X119.957Y-53.205
X133.887Y-27.991
X134.657Y-34.555
X135.001Y-26.356
X135.45Y-27.956
X135.514Y-31.389
X137.725Y-27.956
X138.047Y-35.459
X138.355Y-29.067
X138.955Y-26.956
X142.75Y-41.123
X146.011Y-37.286
M30
