%TF.GenerationSoftware,KiCad,Pcbnew,8.0.6*%
%TF.CreationDate,2025-05-20T21:00:01-04:00*%
%TF.ProjectId,aquasage,61717561-7361-4676-952e-6b696361645f,rev?*%
%TF.SameCoordinates,Original*%
%TF.FileFunction,Copper,L2,Bot*%
%TF.FilePolarity,Positive*%
%FSLAX46Y46*%
G04 Gerber Fmt 4.6, Leading zero omitted, Abs format (unit mm)*
G04 Created by KiCad (PCBNEW 8.0.6) date 2025-05-20 21:00:01*
%MOMM*%
%LPD*%
G01*
G04 APERTURE LIST*
%TA.AperFunction,HeatsinkPad*%
%ADD10C,0.600000*%
%TD*%
%TA.AperFunction,ViaPad*%
%ADD11C,0.600000*%
%TD*%
%TA.AperFunction,Conductor*%
%ADD12C,0.200000*%
%TD*%
G04 APERTURE END LIST*
D10*
%TO.P,U1,41,GND*%
%TO.N,GND*%
X98541200Y-57188000D03*
X98541200Y-55788000D03*
X97841200Y-57888000D03*
X97841200Y-56488000D03*
X97841200Y-55088000D03*
X97141200Y-57188000D03*
X97141200Y-55788000D03*
X96441200Y-57888000D03*
X96441200Y-56488000D03*
X96441200Y-55088000D03*
X95741200Y-57188000D03*
X95741200Y-55788000D03*
%TD*%
D11*
%TO.N,/+3.3V*%
X65270000Y-56694472D03*
X69094800Y-55793000D03*
%TO.N,GND*%
X67843400Y-57480200D03*
X65440635Y-58562165D03*
%TO.N,/SD_CS*%
X63520000Y-55793000D03*
X63149565Y-51683835D03*
%TO.N,GND*%
X60102000Y-44152400D03*
X63592835Y-48776765D03*
%TO.N,/+3.3V*%
X75716800Y-52374800D03*
X77978000Y-53644800D03*
%TO.N,GND*%
X79907600Y-50278000D03*
X88239782Y-47978000D03*
X89891200Y-48768000D03*
X93729765Y-50117965D03*
X101034800Y-53248000D03*
X106941200Y-49087998D03*
%TO.N,/SD_MOSI*%
X91141202Y-56781300D03*
X67444800Y-55793000D03*
X106941200Y-51282600D03*
X91389200Y-53248000D03*
%TO.N,GND*%
X109041200Y-48742600D03*
X107391200Y-48768000D03*
%TO.N,VCC*%
X79907600Y-54878000D03*
X112733365Y-59164765D03*
%TO.N,GND*%
X119956665Y-53205465D03*
X117324041Y-53585111D03*
%TO.N,/THERM_OUT*%
X89891200Y-55118000D03*
X109372400Y-47978000D03*
%TO.N,GND*%
X142749800Y-41122600D03*
X146010800Y-37286200D03*
%TO.N,/THERM_OUT*%
X134656746Y-34555346D03*
X135514165Y-31389235D03*
%TO.N,GND*%
X138047400Y-35459400D03*
X138355128Y-29066883D03*
%TO.N,/TURB_OUT*%
X89891200Y-53848000D03*
X138955128Y-26956200D03*
%TO.N,/+3.3V*%
X137724900Y-27956200D03*
X135001000Y-26356200D03*
%TO.N,Net-(U3-+)*%
X135449900Y-27956200D03*
X133887400Y-27990800D03*
%TO.N,/SD_CLK*%
X106941200Y-49987200D03*
X60102000Y-45252400D03*
%TD*%
D12*
%TO.N,/+3.3V*%
X65270000Y-56694472D02*
X65455728Y-56880200D01*
X65455728Y-56880200D02*
X68007600Y-56880200D01*
X68007600Y-56880200D02*
X69094800Y-55793000D01*
%TO.N,GND*%
X67056000Y-58267600D02*
X67843400Y-57480200D01*
X65735200Y-58267600D02*
X67056000Y-58267600D01*
X65440635Y-58562165D02*
X65735200Y-58267600D01*
%TO.N,/SD_CS*%
X63149565Y-51683835D02*
X63149565Y-55422565D01*
X63149565Y-55422565D02*
X63520000Y-55793000D01*
%TO.N,GND*%
X62777836Y-48776765D02*
X59502000Y-45500929D01*
X59502000Y-44752400D02*
X60102000Y-44152400D01*
X63592835Y-48776765D02*
X62777836Y-48776765D01*
X59502000Y-45500929D02*
X59502000Y-44752400D01*
%TO.N,/+3.3V*%
X76986800Y-53644800D02*
X75716800Y-52374800D01*
X77978000Y-53644800D02*
X76986800Y-53644800D01*
%TO.N,GND*%
X85939782Y-50278000D02*
X79907600Y-50278000D01*
X88239782Y-47978000D02*
X85939782Y-50278000D01*
X93729765Y-50117965D02*
X92379800Y-48768000D01*
X92379800Y-48768000D02*
X89891200Y-48768000D01*
X105824329Y-53248000D02*
X101034800Y-53248000D01*
X107541200Y-51531129D02*
X105824329Y-53248000D01*
X107541200Y-51034071D02*
X107541200Y-51531129D01*
X107189729Y-50682600D02*
X107541200Y-51034071D01*
X106692671Y-50682600D02*
X107189729Y-50682600D01*
X106941200Y-49087998D02*
X105194802Y-49087998D01*
X105194802Y-49184731D02*
X106692671Y-50682600D01*
X105194802Y-49087998D02*
X105194802Y-49184731D01*
%TO.N,/SD_MOSI*%
X68959800Y-54278000D02*
X67444800Y-55793000D01*
X82659429Y-56781300D02*
X80156129Y-54278000D01*
X91141202Y-56781300D02*
X82659429Y-56781300D01*
X93354600Y-51282600D02*
X91389200Y-53248000D01*
X80156129Y-54278000D02*
X68959800Y-54278000D01*
X106941200Y-51282600D02*
X93354600Y-51282600D01*
%TO.N,GND*%
X107416600Y-48742600D02*
X107391200Y-48768000D01*
X109041200Y-48742600D02*
X107416600Y-48742600D01*
%TO.N,VCC*%
X84194365Y-59164765D02*
X79907600Y-54878000D01*
X112733365Y-59164765D02*
X84194365Y-59164765D01*
%TO.N,GND*%
X119577019Y-53585111D02*
X117324041Y-53585111D01*
X119956665Y-53205465D02*
X119577019Y-53585111D01*
%TO.N,/THERM_OUT*%
X88839782Y-54066582D02*
X89891200Y-55118000D01*
X109372400Y-47978000D02*
X88839782Y-47978000D01*
X88839782Y-47978000D02*
X88839782Y-54066582D01*
%TO.N,GND*%
X142889656Y-37286200D02*
X142889656Y-40982744D01*
X142889656Y-40982744D02*
X142749800Y-41122600D01*
X142889656Y-37286200D02*
X146010800Y-37286200D01*
X139555128Y-33951672D02*
X142889656Y-37286200D01*
%TO.N,/THERM_OUT*%
X134656746Y-32246654D02*
X134656746Y-34555346D01*
X135514165Y-31389235D02*
X134656746Y-32246654D01*
%TO.N,GND*%
X139555128Y-26707671D02*
X139555128Y-33951672D01*
X139203657Y-26356200D02*
X139555128Y-26707671D01*
X139555128Y-33951672D02*
X138047400Y-35459400D01*
X138355128Y-26707671D02*
X138706599Y-26356200D01*
X138355128Y-29066883D02*
X138355128Y-26707671D01*
X138706599Y-26356200D02*
X139203657Y-26356200D01*
%TO.N,/TURB_OUT*%
X138955128Y-31105494D02*
X116212622Y-53848000D01*
X138955128Y-26956200D02*
X138955128Y-31105494D01*
X116212622Y-53848000D02*
X89891200Y-53848000D01*
%TO.N,/+3.3V*%
X136601000Y-27956200D02*
X137724900Y-27956200D01*
X135001000Y-26356200D02*
X136601000Y-27956200D01*
%TO.N,Net-(U3-+)*%
X135415300Y-27990800D02*
X135449900Y-27956200D01*
X133887400Y-27990800D02*
X135415300Y-27990800D01*
%TO.N,/SD_CLK*%
X106941200Y-49987200D02*
X119507736Y-49987200D01*
X119507736Y-49987200D02*
X122116936Y-47378000D01*
X122116936Y-47378000D02*
X62227600Y-47378000D01*
X62227600Y-47378000D02*
X60102000Y-45252400D01*
%TD*%
M02*
