%TF.GenerationSoftware,KiCad,Pcbnew,8.0.6*%
%TF.CreationDate,2025-05-20T21:00:06-04:00*%
%TF.ProjectId,aquasage,61717561-7361-4676-952e-6b696361645f,rev?*%
%TF.SameCoordinates,Original*%
%TF.FileFunction,Drillmap*%
%TF.FilePolarity,Positive*%
%FSLAX45Y45*%
G04 Gerber Fmt 4.5, Leading zero omitted, Abs format (unit mm)*
G04 Created by KiCad (PCBNEW 8.0.6) date 2025-05-20 21:00:06*
%MOMM*%
%LPD*%
G01*
G04 APERTURE LIST*
%ADD10C,0.050000*%
%ADD11C,0.200000*%
G04 APERTURE END LIST*
D10*
X5298440Y-2489200D02*
X14851380Y-2489200D01*
X14851380Y-6880860D01*
X5298440Y-6880860D01*
X5298440Y-2489200D01*
D11*
X5556717Y-7194844D02*
X5556717Y-6994844D01*
X5556717Y-6994844D02*
X5604336Y-6994844D01*
X5604336Y-6994844D02*
X5632907Y-7004368D01*
X5632907Y-7004368D02*
X5651955Y-7023415D01*
X5651955Y-7023415D02*
X5661479Y-7042463D01*
X5661479Y-7042463D02*
X5671002Y-7080558D01*
X5671002Y-7080558D02*
X5671002Y-7109129D01*
X5671002Y-7109129D02*
X5661479Y-7147225D01*
X5661479Y-7147225D02*
X5651955Y-7166272D01*
X5651955Y-7166272D02*
X5632907Y-7185320D01*
X5632907Y-7185320D02*
X5604336Y-7194844D01*
X5604336Y-7194844D02*
X5556717Y-7194844D01*
X5756717Y-7194844D02*
X5756717Y-7061510D01*
X5756717Y-7099606D02*
X5766241Y-7080558D01*
X5766241Y-7080558D02*
X5775764Y-7071034D01*
X5775764Y-7071034D02*
X5794812Y-7061510D01*
X5794812Y-7061510D02*
X5813860Y-7061510D01*
X5880526Y-7194844D02*
X5880526Y-7061510D01*
X5880526Y-6994844D02*
X5871002Y-7004368D01*
X5871002Y-7004368D02*
X5880526Y-7013891D01*
X5880526Y-7013891D02*
X5890050Y-7004368D01*
X5890050Y-7004368D02*
X5880526Y-6994844D01*
X5880526Y-6994844D02*
X5880526Y-7013891D01*
X6004336Y-7194844D02*
X5985288Y-7185320D01*
X5985288Y-7185320D02*
X5975764Y-7166272D01*
X5975764Y-7166272D02*
X5975764Y-6994844D01*
X6109098Y-7194844D02*
X6090050Y-7185320D01*
X6090050Y-7185320D02*
X6080526Y-7166272D01*
X6080526Y-7166272D02*
X6080526Y-6994844D01*
X6337669Y-7194844D02*
X6337669Y-6994844D01*
X6337669Y-6994844D02*
X6404336Y-7137701D01*
X6404336Y-7137701D02*
X6471002Y-6994844D01*
X6471002Y-6994844D02*
X6471002Y-7194844D01*
X6651955Y-7194844D02*
X6651955Y-7090082D01*
X6651955Y-7090082D02*
X6642431Y-7071034D01*
X6642431Y-7071034D02*
X6623383Y-7061510D01*
X6623383Y-7061510D02*
X6585288Y-7061510D01*
X6585288Y-7061510D02*
X6566241Y-7071034D01*
X6651955Y-7185320D02*
X6632907Y-7194844D01*
X6632907Y-7194844D02*
X6585288Y-7194844D01*
X6585288Y-7194844D02*
X6566241Y-7185320D01*
X6566241Y-7185320D02*
X6556717Y-7166272D01*
X6556717Y-7166272D02*
X6556717Y-7147225D01*
X6556717Y-7147225D02*
X6566241Y-7128177D01*
X6566241Y-7128177D02*
X6585288Y-7118653D01*
X6585288Y-7118653D02*
X6632907Y-7118653D01*
X6632907Y-7118653D02*
X6651955Y-7109129D01*
X6747193Y-7061510D02*
X6747193Y-7261510D01*
X6747193Y-7071034D02*
X6766241Y-7061510D01*
X6766241Y-7061510D02*
X6804336Y-7061510D01*
X6804336Y-7061510D02*
X6823383Y-7071034D01*
X6823383Y-7071034D02*
X6832907Y-7080558D01*
X6832907Y-7080558D02*
X6842431Y-7099606D01*
X6842431Y-7099606D02*
X6842431Y-7156748D01*
X6842431Y-7156748D02*
X6832907Y-7175796D01*
X6832907Y-7175796D02*
X6823383Y-7185320D01*
X6823383Y-7185320D02*
X6804336Y-7194844D01*
X6804336Y-7194844D02*
X6766241Y-7194844D01*
X6766241Y-7194844D02*
X6747193Y-7185320D01*
X6928145Y-7175796D02*
X6937669Y-7185320D01*
X6937669Y-7185320D02*
X6928145Y-7194844D01*
X6928145Y-7194844D02*
X6918622Y-7185320D01*
X6918622Y-7185320D02*
X6928145Y-7175796D01*
X6928145Y-7175796D02*
X6928145Y-7194844D01*
X6928145Y-7071034D02*
X6937669Y-7080558D01*
X6937669Y-7080558D02*
X6928145Y-7090082D01*
X6928145Y-7090082D02*
X6918622Y-7080558D01*
X6918622Y-7080558D02*
X6928145Y-7071034D01*
X6928145Y-7071034D02*
X6928145Y-7090082D01*
M02*
