%TF.GenerationSoftware,KiCad,Pcbnew,8.0.6*%
%TF.CreationDate,2025-05-20T21:00:01-04:00*%
%TF.ProjectId,aquasage,61717561-7361-4676-952e-6b696361645f,rev?*%
%TF.SameCoordinates,Original*%
%TF.FileFunction,Copper,L1,Top*%
%TF.FilePolarity,Positive*%
%FSLAX46Y46*%
G04 Gerber Fmt 4.6, Leading zero omitted, Abs format (unit mm)*
G04 Created by KiCad (PCBNEW 8.0.6) date 2025-05-20 21:00:01*
%MOMM*%
%LPD*%
G01*
G04 APERTURE LIST*
G04 Aperture macros list*
%AMRoundRect*
0 Rectangle with rounded corners*
0 $1 Rounding radius*
0 $2 $3 $4 $5 $6 $7 $8 $9 X,Y pos of 4 corners*
0 Add a 4 corners polygon primitive as box body*
4,1,4,$2,$3,$4,$5,$6,$7,$8,$9,$2,$3,0*
0 Add four circle primitives for the rounded corners*
1,1,$1+$1,$2,$3*
1,1,$1+$1,$4,$5*
1,1,$1+$1,$6,$7*
1,1,$1+$1,$8,$9*
0 Add four rect primitives between the rounded corners*
20,1,$1+$1,$2,$3,$4,$5,0*
20,1,$1+$1,$4,$5,$6,$7,0*
20,1,$1+$1,$6,$7,$8,$9,0*
20,1,$1+$1,$8,$9,$2,$3,0*%
G04 Aperture macros list end*
%TA.AperFunction,SMDPad,CuDef*%
%ADD10RoundRect,0.125000X-0.537500X-0.125000X0.537500X-0.125000X0.537500X0.125000X-0.537500X0.125000X0*%
%TD*%
%TA.AperFunction,SMDPad,CuDef*%
%ADD11RoundRect,0.150000X-0.512500X-0.150000X0.512500X-0.150000X0.512500X0.150000X-0.512500X0.150000X0*%
%TD*%
%TA.AperFunction,SMDPad,CuDef*%
%ADD12RoundRect,0.375000X-0.625000X-0.375000X0.625000X-0.375000X0.625000X0.375000X-0.625000X0.375000X0*%
%TD*%
%TA.AperFunction,SMDPad,CuDef*%
%ADD13RoundRect,0.500000X-0.500000X-1.400000X0.500000X-1.400000X0.500000X1.400000X-0.500000X1.400000X0*%
%TD*%
%TA.AperFunction,HeatsinkPad*%
%ADD14C,0.600000*%
%TD*%
%TA.AperFunction,SMDPad,CuDef*%
%ADD15R,3.900000X3.900000*%
%TD*%
%TA.AperFunction,SMDPad,CuDef*%
%ADD16R,1.500000X0.900000*%
%TD*%
%TA.AperFunction,SMDPad,CuDef*%
%ADD17R,0.900000X1.500000*%
%TD*%
%TA.AperFunction,SMDPad,CuDef*%
%ADD18RoundRect,0.200000X-0.200000X-0.275000X0.200000X-0.275000X0.200000X0.275000X-0.200000X0.275000X0*%
%TD*%
%TA.AperFunction,SMDPad,CuDef*%
%ADD19R,1.700000X1.000000*%
%TD*%
%TA.AperFunction,SMDPad,CuDef*%
%ADD20R,1.800000X1.170000*%
%TD*%
%TA.AperFunction,SMDPad,CuDef*%
%ADD21R,1.350000X1.900000*%
%TD*%
%TA.AperFunction,SMDPad,CuDef*%
%ADD22R,1.350000X1.550000*%
%TD*%
%TA.AperFunction,SMDPad,CuDef*%
%ADD23R,1.000000X1.200000*%
%TD*%
%TA.AperFunction,SMDPad,CuDef*%
%ADD24R,1.100000X0.750000*%
%TD*%
%TA.AperFunction,SMDPad,CuDef*%
%ADD25R,1.100000X0.850000*%
%TD*%
%TA.AperFunction,SMDPad,CuDef*%
%ADD26RoundRect,0.250000X-0.375000X-0.625000X0.375000X-0.625000X0.375000X0.625000X-0.375000X0.625000X0*%
%TD*%
%TA.AperFunction,SMDPad,CuDef*%
%ADD27RoundRect,0.250000X-1.000000X-0.650000X1.000000X-0.650000X1.000000X0.650000X-1.000000X0.650000X0*%
%TD*%
%TA.AperFunction,SMDPad,CuDef*%
%ADD28RoundRect,0.090000X-0.660000X-0.360000X0.660000X-0.360000X0.660000X0.360000X-0.660000X0.360000X0*%
%TD*%
%TA.AperFunction,SMDPad,CuDef*%
%ADD29RoundRect,0.218750X-0.218750X-0.256250X0.218750X-0.256250X0.218750X0.256250X-0.218750X0.256250X0*%
%TD*%
%TA.AperFunction,SMDPad,CuDef*%
%ADD30RoundRect,0.225000X-0.225000X-0.250000X0.225000X-0.250000X0.225000X0.250000X-0.225000X0.250000X0*%
%TD*%
%TA.AperFunction,SMDPad,CuDef*%
%ADD31RoundRect,0.250000X-0.325000X-0.650000X0.325000X-0.650000X0.325000X0.650000X-0.325000X0.650000X0*%
%TD*%
%TA.AperFunction,SMDPad,CuDef*%
%ADD32R,1.270000X5.080000*%
%TD*%
%TA.AperFunction,SMDPad,CuDef*%
%ADD33C,17.800000*%
%TD*%
%TA.AperFunction,ViaPad*%
%ADD34C,0.600000*%
%TD*%
%TA.AperFunction,Conductor*%
%ADD35C,0.200000*%
%TD*%
G04 APERTURE END LIST*
D10*
%TO.P,Q1,1,C*%
%TO.N,/+3.3V*%
X144836900Y-28441400D03*
%TO.P,Q1,2,E*%
%TO.N,/TURB_OUT*%
X144836900Y-29441400D03*
%TD*%
D11*
%TO.P,U4,6,STDBY*%
%TO.N,Net-(U4-PROG)*%
X116179600Y-56195000D03*
%TO.P,U4,1,~{CHRG}*%
%TO.N,unconnected-(U4-~{CHRG}-Pad1)*%
X113904600Y-55245000D03*
%TO.P,U4,2,GND*%
%TO.N,GND*%
X113904600Y-56195000D03*
%TO.P,U4,3,BAT*%
%TO.N,/VBAT*%
X113904600Y-57145000D03*
%TO.P,U4,4,V_{CC}*%
%TO.N,VCC*%
X116179600Y-57145000D03*
%TO.P,U4,5,STDBY*%
%TO.N,unconnected-(U4-STDBY-Pad5)*%
X116179600Y-55245000D03*
%TD*%
%TO.P,U3,1,+*%
%TO.N,Net-(U3-+)*%
X135449900Y-27956200D03*
%TO.P,U3,2,V-*%
%TO.N,GND*%
X135449900Y-28906200D03*
%TO.P,U3,3,-*%
%TO.N,/TDS_IN-*%
X135449900Y-29856200D03*
%TO.P,U3,4*%
%TO.N,/TDS_OUT*%
X137724900Y-29856200D03*
%TO.P,U3,5,V+*%
%TO.N,/+3.3V*%
X137724900Y-27956200D03*
%TD*%
D12*
%TO.P,U2,1,GND*%
%TO.N,GND*%
X79907600Y-50278000D03*
%TO.P,U2,2,VO*%
%TO.N,/+3.3V*%
X79907600Y-52578000D03*
D13*
X86207600Y-52578000D03*
D12*
%TO.P,U2,3,VI*%
%TO.N,VCC*%
X79907600Y-54878000D03*
%TD*%
D14*
%TO.P,U1,41,GND*%
%TO.N,GND*%
X98541200Y-57188000D03*
X98541200Y-55788000D03*
X97841200Y-57888000D03*
X97841200Y-56488000D03*
X97841200Y-55088000D03*
X97141200Y-57188000D03*
D15*
X97141200Y-56488000D03*
D14*
X97141200Y-55788000D03*
X96441200Y-57888000D03*
X96441200Y-56488000D03*
X96441200Y-55088000D03*
X95741200Y-57188000D03*
X95741200Y-55788000D03*
D16*
%TO.P,U1,40,GND*%
X107391200Y-48768000D03*
%TO.P,U1,39,IO1*%
%TO.N,/SD_CLK*%
X107391200Y-50038000D03*
%TO.P,U1,38,IO2*%
%TO.N,/SD_MOSI*%
X107391200Y-51308000D03*
%TO.P,U1,37,TXD0*%
%TO.N,unconnected-(U1-TXD0-Pad37)*%
X107391200Y-52578000D03*
%TO.P,U1,36,RXD0*%
%TO.N,unconnected-(U1-RXD0-Pad36)*%
X107391200Y-53848000D03*
%TO.P,U1,35,IO42*%
%TO.N,unconnected-(U1-IO42-Pad35)*%
X107391200Y-55118000D03*
%TO.P,U1,34,IO41*%
%TO.N,unconnected-(U1-IO41-Pad34)*%
X107391200Y-56388000D03*
%TO.P,U1,33,IO40*%
%TO.N,unconnected-(U1-IO40-Pad33)*%
X107391200Y-57658000D03*
%TO.P,U1,32,IO39*%
%TO.N,unconnected-(U1-IO39-Pad32)*%
X107391200Y-58928000D03*
%TO.P,U1,31,IO38*%
%TO.N,unconnected-(U1-IO38-Pad31)*%
X107391200Y-60198000D03*
%TO.P,U1,30,IO37*%
%TO.N,unconnected-(U1-IO37-Pad30)*%
X107391200Y-61468000D03*
%TO.P,U1,29,IO36*%
%TO.N,unconnected-(U1-IO36-Pad29)*%
X107391200Y-62738000D03*
%TO.P,U1,28,IO35*%
%TO.N,unconnected-(U1-IO35-Pad28)*%
X107391200Y-64008000D03*
%TO.P,U1,27,IO0*%
%TO.N,/SD_CS*%
X107391200Y-65278000D03*
D17*
%TO.P,U1,26,IO45*%
%TO.N,unconnected-(U1-IO45-Pad26)*%
X105626200Y-66528000D03*
%TO.P,U1,25,IO48*%
%TO.N,unconnected-(U1-IO48-Pad25)*%
X104356200Y-66528000D03*
%TO.P,U1,24,IO47*%
%TO.N,unconnected-(U1-IO47-Pad24)*%
X103086200Y-66528000D03*
%TO.P,U1,23,IO21*%
%TO.N,unconnected-(U1-IO21-Pad23)*%
X101816200Y-66528000D03*
%TO.P,U1,22,IO14*%
%TO.N,unconnected-(U1-IO14-Pad22)*%
X100546200Y-66528000D03*
%TO.P,U1,21,IO13*%
%TO.N,unconnected-(U1-IO13-Pad21)*%
X99276200Y-66528000D03*
%TO.P,U1,20,IO12*%
%TO.N,unconnected-(U1-IO12-Pad20)*%
X98006200Y-66528000D03*
%TO.P,U1,19,IO11*%
%TO.N,unconnected-(U1-IO11-Pad19)*%
X96736200Y-66528000D03*
%TO.P,U1,18,IO10*%
%TO.N,unconnected-(U1-IO10-Pad18)*%
X95466200Y-66528000D03*
%TO.P,U1,17,IO9*%
%TO.N,unconnected-(U1-IO9-Pad17)*%
X94196200Y-66528000D03*
%TO.P,U1,16,IO46*%
%TO.N,unconnected-(U1-IO46-Pad16)*%
X92926200Y-66528000D03*
%TO.P,U1,15,IO3*%
%TO.N,/SD_MISO*%
X91656200Y-66528000D03*
D16*
%TO.P,U1,14,IO20*%
%TO.N,unconnected-(U1-IO20-Pad14)*%
X89891200Y-65278000D03*
%TO.P,U1,13,IO19*%
%TO.N,unconnected-(U1-IO19-Pad13)*%
X89891200Y-64008000D03*
%TO.P,U1,12,IO8*%
%TO.N,/LED_DATA*%
X89891200Y-62738000D03*
%TO.P,U1,11,IO18*%
%TO.N,unconnected-(U1-IO18-Pad11)*%
X89891200Y-61468000D03*
%TO.P,U1,10,IO17*%
%TO.N,unconnected-(U1-IO17-Pad10)*%
X89891200Y-60198000D03*
%TO.P,U1,9,IO16*%
%TO.N,unconnected-(U1-IO16-Pad9)*%
X89891200Y-58928000D03*
%TO.P,U1,8,IO15*%
%TO.N,unconnected-(U1-IO15-Pad8)*%
X89891200Y-57658000D03*
%TO.P,U1,7,IO7*%
%TO.N,unconnected-(U1-IO7-Pad7)*%
X89891200Y-56388000D03*
%TO.P,U1,6,IO6*%
%TO.N,/THERM_OUT*%
X89891200Y-55118000D03*
%TO.P,U1,5,IO5*%
%TO.N,/TURB_OUT*%
X89891200Y-53848000D03*
%TO.P,U1,4,IO4*%
%TO.N,/TDS_OUT*%
X89891200Y-52578000D03*
%TO.P,U1,3,EN*%
%TO.N,/ESP_EN*%
X89891200Y-51308000D03*
%TO.P,U1,2,3V3*%
%TO.N,/+3.3V*%
X89891200Y-50038000D03*
%TO.P,U1,1,GND*%
%TO.N,GND*%
X89891200Y-48768000D03*
%TD*%
D18*
%TO.P,TH1,1*%
%TO.N,/THERM_OUT*%
X136397400Y-35459400D03*
%TO.P,TH1,2*%
%TO.N,GND*%
X138047400Y-35459400D03*
%TD*%
D19*
%TO.P,SW1,2,2*%
%TO.N,GND*%
X86487000Y-64582200D03*
X80187000Y-64582200D03*
%TO.P,SW1,1,1*%
%TO.N,/ESP_EN*%
X86487000Y-60782200D03*
X80187000Y-60782200D03*
%TD*%
D18*
%TO.P,R11,1*%
%TO.N,Net-(U4-PROG)*%
X114757200Y-51866800D03*
%TO.P,R11,2*%
%TO.N,GND*%
X116407200Y-51866800D03*
%TD*%
%TO.P,R10,1*%
%TO.N,/+3.3V*%
X124726600Y-29744400D03*
%TO.P,R10,2*%
%TO.N,Net-(D1-K)*%
X126376600Y-29744400D03*
%TD*%
%TO.P,R9,1*%
%TO.N,GND*%
X131622200Y-27991800D03*
%TO.P,R9,2*%
%TO.N,Net-(U3-+)*%
X133272200Y-27991800D03*
%TD*%
%TO.P,R8,1*%
%TO.N,/SD_MOSI*%
X67444800Y-55793000D03*
%TO.P,R8,2*%
%TO.N,/+3.3V*%
X69094800Y-55793000D03*
%TD*%
%TO.P,R7,1*%
%TO.N,/SD_CS*%
X63520000Y-55793000D03*
%TO.P,R7,2*%
%TO.N,/+3.3V*%
X65170000Y-55793000D03*
%TD*%
%TO.P,R6,1*%
%TO.N,/LED_DATA*%
X144869400Y-40741600D03*
%TO.P,R6,2*%
X146519400Y-40741600D03*
%TD*%
%TO.P,R5,1*%
%TO.N,/TURB_OUT*%
X139889400Y-27966400D03*
%TO.P,R5,2*%
%TO.N,/+3.3V*%
X141539400Y-27966400D03*
%TD*%
%TO.P,R4,2*%
%TO.N,/+3.3V*%
X138022000Y-31878000D03*
%TO.P,R4,1*%
%TO.N,/THERM_OUT*%
X136372000Y-31878000D03*
%TD*%
%TO.P,R3,1*%
%TO.N,/+3.3V*%
X131622200Y-29744400D03*
%TO.P,R3,2*%
%TO.N,Net-(U3-+)*%
X133272200Y-29744400D03*
%TD*%
%TO.P,R2,2*%
%TO.N,/TDS_IN-*%
X141603400Y-29947600D03*
%TO.P,R2,1*%
%TO.N,/TDS_OUT*%
X139953400Y-29947600D03*
%TD*%
%TO.P,R1,1*%
%TO.N,/ESP_EN*%
X85243400Y-58445400D03*
%TO.P,R1,2*%
%TO.N,/+3.3V*%
X86893400Y-58445400D03*
%TD*%
D20*
%TO.P,J1,11*%
%TO.N,N/C*%
X60452000Y-40792400D03*
D21*
X70927000Y-42817400D03*
X70927000Y-48787400D03*
D22*
X60227000Y-52112400D03*
D23*
%TO.P,J1,10*%
X69952000Y-52287400D03*
%TO.P,J1,9,SHIELD*%
%TO.N,GND*%
X66252000Y-52287400D03*
D24*
%TO.P,J1,8,DAT1*%
%TO.N,unconnected-(J1-DAT1-Pad8)*%
X60102000Y-42002400D03*
D25*
%TO.P,J1,7,DAT0*%
%TO.N,/SD_MISO*%
X60102000Y-43052400D03*
%TO.P,J1,6,VSS*%
%TO.N,GND*%
X60102000Y-44152400D03*
%TO.P,J1,5,CLK*%
%TO.N,/SD_CLK*%
X60102000Y-45252400D03*
%TO.P,J1,4,VDD*%
%TO.N,/+3.3V*%
X60102000Y-46352400D03*
%TO.P,J1,3,CMD*%
%TO.N,/SD_MOSI*%
X60102000Y-47452400D03*
%TO.P,J1,2,DAT3/CD*%
%TO.N,/SD_CS*%
X60102000Y-48552400D03*
%TO.P,J1,1,DAT2*%
%TO.N,unconnected-(J1-DAT2-Pad1)*%
X60102000Y-49652400D03*
%TD*%
D26*
%TO.P,F1,1*%
%TO.N,/VBAT_RAW*%
X113328800Y-65735200D03*
%TO.P,F1,2*%
%TO.N,/VBAT*%
X116128800Y-65735200D03*
%TD*%
D27*
%TO.P,D3,1,K*%
%TO.N,/VBAT*%
X111563400Y-61264800D03*
%TO.P,D3,2,A*%
%TO.N,VCC*%
X115563400Y-61264800D03*
%TD*%
D28*
%TO.P,D2,1,VDD*%
%TO.N,VCC*%
X141110800Y-33986200D03*
%TO.P,D2,2,DOUT*%
%TO.N,unconnected-(D2-DOUT-Pad2)*%
X141110800Y-37286200D03*
%TO.P,D2,3,VSS*%
%TO.N,GND*%
X146010800Y-37286200D03*
%TO.P,D2,4,DIN*%
%TO.N,/LED_DATA*%
X146010800Y-33986200D03*
%TD*%
D29*
%TO.P,D1,1,K*%
%TO.N,Net-(D1-K)*%
X128206400Y-29769800D03*
%TO.P,D1,2,A*%
%TO.N,GND*%
X129781400Y-29769800D03*
%TD*%
D30*
%TO.P,C6,1*%
%TO.N,/+3.3V*%
X59849400Y-55742200D03*
%TO.P,C6,2*%
%TO.N,GND*%
X61399400Y-55742200D03*
%TD*%
D31*
%TO.P,C5,1*%
%TO.N,VCC*%
X139799800Y-41122600D03*
%TO.P,C5,2*%
%TO.N,GND*%
X142749800Y-41122600D03*
%TD*%
D30*
%TO.P,C3,1*%
%TO.N,/+3.3V*%
X128192400Y-27966400D03*
%TO.P,C3,2*%
%TO.N,GND*%
X129742400Y-27966400D03*
%TD*%
%TO.P,C2,1*%
%TO.N,/+3.3V*%
X75716800Y-52374800D03*
%TO.P,C2,2*%
%TO.N,GND*%
X77266800Y-52374800D03*
%TD*%
%TO.P,C1,1*%
%TO.N,VCC*%
X75602800Y-55499000D03*
%TO.P,C1,2*%
%TO.N,GND*%
X77152800Y-55499000D03*
%TD*%
D32*
%TO.P,BT1,1,+*%
%TO.N,/VBAT_RAW*%
X119139200Y-56794400D03*
X141109200Y-56794400D03*
D33*
%TO.P,BT1,2,-*%
%TO.N,GND*%
X130124200Y-56794400D03*
%TD*%
D34*
%TO.N,/+3.3V*%
X65270000Y-56694472D03*
X69094800Y-55793000D03*
%TO.N,GND*%
X67843400Y-57480200D03*
X65440635Y-58562165D03*
%TO.N,/SD_CS*%
X63520000Y-55793000D03*
X63149565Y-51683835D03*
%TO.N,GND*%
X60102000Y-44152400D03*
X63592835Y-48776765D03*
%TO.N,/+3.3V*%
X75716800Y-52374800D03*
X77978000Y-53644800D03*
%TO.N,GND*%
X79907600Y-50278000D03*
X88239782Y-47978000D03*
X89891200Y-48768000D03*
X93729765Y-50117965D03*
X101034800Y-53248000D03*
X106941200Y-49087998D03*
%TO.N,/SD_MOSI*%
X91141202Y-56781300D03*
X67444800Y-55793000D03*
X106941200Y-51282600D03*
X91389200Y-53248000D03*
%TO.N,GND*%
X109041200Y-48742600D03*
X107391200Y-48768000D03*
%TO.N,VCC*%
X79907600Y-54878000D03*
X112733365Y-59164765D03*
%TO.N,GND*%
X119956665Y-53205465D03*
X117324041Y-53585111D03*
%TO.N,/THERM_OUT*%
X89891200Y-55118000D03*
X109372400Y-47978000D03*
%TO.N,GND*%
X142749800Y-41122600D03*
X146010800Y-37286200D03*
%TO.N,/THERM_OUT*%
X134656746Y-34555346D03*
X135514165Y-31389235D03*
%TO.N,GND*%
X138047400Y-35459400D03*
X138355128Y-29066883D03*
%TO.N,/TURB_OUT*%
X89891200Y-53848000D03*
X138955128Y-26956200D03*
%TO.N,/+3.3V*%
X137724900Y-27956200D03*
X135001000Y-26356200D03*
%TO.N,Net-(U3-+)*%
X135449900Y-27956200D03*
X133887400Y-27990800D03*
%TO.N,/SD_CLK*%
X106941200Y-49987200D03*
X60102000Y-45252400D03*
%TD*%
D35*
%TO.N,/TURB_OUT*%
X144524400Y-29441400D02*
X144836900Y-29441400D01*
X143699400Y-28616400D02*
X144524400Y-29441400D01*
%TO.N,/+3.3V*%
X144174400Y-28441400D02*
X144836900Y-28441400D01*
X143699400Y-27966400D02*
X144174400Y-28441400D01*
X65170000Y-56594472D02*
X65270000Y-56694472D01*
X65170000Y-55793000D02*
X65170000Y-56594472D01*
%TO.N,GND*%
X67007400Y-56644200D02*
X67007400Y-56568000D01*
X67843400Y-57480200D02*
X67007400Y-56644200D01*
X64219365Y-58562165D02*
X65440635Y-58562165D01*
X61399400Y-55742200D02*
X64219365Y-58562165D01*
%TO.N,/+3.3V*%
X64344200Y-54967200D02*
X65170000Y-55793000D01*
X60624400Y-54967200D02*
X64344200Y-54967200D01*
X59849400Y-55742200D02*
X60624400Y-54967200D01*
%TO.N,/SD_CS*%
X63149565Y-50849965D02*
X63149565Y-51683835D01*
X60102000Y-48552400D02*
X60852000Y-48552400D01*
X60852000Y-48552400D02*
X63149565Y-50849965D01*
%TO.N,/+3.3V*%
X60577000Y-46352400D02*
X60102000Y-46352400D01*
X61652000Y-39907400D02*
X61652000Y-45277400D01*
X59252000Y-39907400D02*
X61652000Y-39907400D01*
X58852000Y-40307400D02*
X59252000Y-39907400D01*
X61652000Y-45277400D02*
X60577000Y-46352400D01*
X58852000Y-54744800D02*
X58852000Y-40307400D01*
X59849400Y-55742200D02*
X58852000Y-54744800D01*
%TO.N,GND*%
X66252000Y-51435930D02*
X63592835Y-48776765D01*
X66252000Y-52287400D02*
X66252000Y-51435930D01*
%TO.N,/SD_MOSI*%
X63117000Y-47452400D02*
X60102000Y-47452400D01*
X67444800Y-51780200D02*
X63117000Y-47452400D01*
X67444800Y-55793000D02*
X67444800Y-51780200D01*
%TO.N,GND*%
X66270000Y-52305400D02*
X66252000Y-52287400D01*
X67007400Y-56568000D02*
X66270000Y-55830600D01*
X73073600Y-56568000D02*
X67007400Y-56568000D01*
X74803000Y-54838600D02*
X73073600Y-56568000D01*
X66270000Y-55830600D02*
X66270000Y-52305400D01*
%TO.N,/+3.3V*%
X72223000Y-55793000D02*
X69094800Y-55793000D01*
X75641200Y-52374800D02*
X72223000Y-55793000D01*
X75716800Y-52374800D02*
X75641200Y-52374800D01*
X79044800Y-52578000D02*
X77978000Y-53644800D01*
X79907600Y-52578000D02*
X79044800Y-52578000D01*
X75716800Y-48495022D02*
X75239778Y-48018000D01*
X75716800Y-52374800D02*
X75716800Y-48495022D01*
%TO.N,GND*%
X77810800Y-52374800D02*
X79907600Y-50278000D01*
X77266800Y-52374800D02*
X77810800Y-52374800D01*
X74803000Y-55956200D02*
X74803000Y-54838600D01*
X74803000Y-54838600D02*
X77266800Y-52374800D01*
X76377800Y-56274000D02*
X75120800Y-56274000D01*
X77152800Y-55499000D02*
X76377800Y-56274000D01*
X75120800Y-56274000D02*
X74803000Y-55956200D01*
%TO.N,VCC*%
X79384800Y-54724000D02*
X76377800Y-54724000D01*
X76377800Y-54724000D02*
X75602800Y-55499000D01*
X79538800Y-54878000D02*
X79384800Y-54724000D01*
X79907600Y-54878000D02*
X79538800Y-54878000D01*
%TO.N,GND*%
X77152800Y-61548000D02*
X77152800Y-55499000D01*
X80187000Y-64582200D02*
X77152800Y-61548000D01*
X80187000Y-64582200D02*
X86487000Y-64582200D01*
%TO.N,/ESP_EN*%
X86018400Y-57670400D02*
X85243400Y-58445400D01*
X87306048Y-57670400D02*
X86018400Y-57670400D01*
X87593400Y-57957752D02*
X87306048Y-57670400D01*
X87593400Y-58933048D02*
X87593400Y-57957752D01*
X85744248Y-60782200D02*
X87593400Y-58933048D01*
X80187000Y-60782200D02*
X85744248Y-60782200D01*
X87363000Y-57670400D02*
X86018400Y-57670400D01*
X87593400Y-59675800D02*
X87593400Y-57900800D01*
X86487000Y-60782200D02*
X87593400Y-59675800D01*
X87593400Y-57900800D02*
X87363000Y-57670400D01*
%TO.N,/+3.3V*%
X84830752Y-59220400D02*
X86118400Y-59220400D01*
X84543400Y-58933048D02*
X84830752Y-59220400D01*
X84543400Y-54242200D02*
X84543400Y-58933048D01*
X86118400Y-59220400D02*
X86893400Y-58445400D01*
X86207600Y-52578000D02*
X84543400Y-54242200D01*
%TO.N,GND*%
X89029782Y-48768000D02*
X88239782Y-47978000D01*
X89891200Y-48768000D02*
X89029782Y-48768000D01*
%TO.N,/+3.3V*%
X88747600Y-50038000D02*
X86207600Y-52578000D01*
X89891200Y-50038000D02*
X88747600Y-50038000D01*
%TO.N,/ESP_EN*%
X87507600Y-53161600D02*
X87507600Y-56181200D01*
X89361200Y-51308000D02*
X87507600Y-53161600D01*
X89891200Y-51308000D02*
X89361200Y-51308000D01*
X87507600Y-56181200D02*
X85243400Y-58445400D01*
%TO.N,/SD_MISO*%
X59797600Y-43052400D02*
X60102000Y-43052400D01*
X59252000Y-43598000D02*
X59797600Y-43052400D01*
X59293600Y-50419000D02*
X59252000Y-50377400D01*
X61036200Y-50419000D02*
X59293600Y-50419000D01*
X65870000Y-55252800D02*
X61036200Y-50419000D01*
X65870000Y-56855352D02*
X65870000Y-55252800D01*
X75542648Y-66528000D02*
X65870000Y-56855352D01*
X59252000Y-50377400D02*
X59252000Y-43598000D01*
X91656200Y-66528000D02*
X75542648Y-66528000D01*
%TO.N,/SD_CS*%
X75305000Y-67578000D02*
X63520000Y-55793000D01*
X106376200Y-67578000D02*
X75305000Y-67578000D01*
X107391200Y-65278000D02*
X107391200Y-66563000D01*
X107391200Y-66563000D02*
X106376200Y-67578000D01*
%TO.N,GND*%
X96441200Y-52829400D02*
X93729765Y-50117965D01*
X96441200Y-55088000D02*
X96441200Y-52829400D01*
X101034800Y-53248000D02*
X101034800Y-53294400D01*
X101034800Y-53294400D02*
X98541200Y-55788000D01*
X107261198Y-48768000D02*
X106941200Y-49087998D01*
X107391200Y-48768000D02*
X107261198Y-48768000D01*
%TO.N,/SD_MOSI*%
X91389200Y-56533302D02*
X91141202Y-56781300D01*
X91389200Y-53248000D02*
X91389200Y-56533302D01*
X106966600Y-51308000D02*
X106941200Y-51282600D01*
X107391200Y-51308000D02*
X106966600Y-51308000D01*
%TO.N,GND*%
X112792852Y-52494252D02*
X109041200Y-48742600D01*
X112942100Y-52494252D02*
X112792852Y-52494252D01*
%TO.N,VCC*%
X114159835Y-59164765D02*
X112733365Y-59164765D01*
X115563400Y-57761200D02*
X114159835Y-59164765D01*
%TO.N,GND*%
X123545600Y-56794400D02*
X119956665Y-53205465D01*
X116407200Y-52668270D02*
X116407200Y-51866800D01*
X130124200Y-56794400D02*
X123545600Y-56794400D01*
X117324041Y-53585111D02*
X116407200Y-52668270D01*
%TO.N,/THERM_OUT*%
X122648308Y-47978000D02*
X109372400Y-47978000D01*
X134656746Y-35969562D02*
X122648308Y-47978000D01*
X134656746Y-34555346D02*
X134656746Y-35969562D01*
%TO.N,/+3.3V*%
X89361200Y-50038000D02*
X89891200Y-50038000D01*
X87341200Y-48018000D02*
X89361200Y-50038000D01*
X75239778Y-48018000D02*
X87341200Y-48018000D01*
X74541200Y-47319422D02*
X75239778Y-48018000D01*
X74541200Y-26236578D02*
X74541200Y-47319422D01*
X74599778Y-26178000D02*
X74541200Y-26236578D01*
X122682622Y-26178000D02*
X74599778Y-26178000D01*
X124726600Y-28221978D02*
X122682622Y-26178000D01*
X124726600Y-29744400D02*
X124726600Y-28221978D01*
%TO.N,/TDS_OUT*%
X90421200Y-52578000D02*
X89891200Y-52578000D01*
X95621200Y-47378000D02*
X90421200Y-52578000D01*
X122682622Y-47378000D02*
X95621200Y-47378000D01*
X122741200Y-47319422D02*
X122682622Y-47378000D01*
X122741200Y-42663600D02*
X122741200Y-47319422D01*
X138783302Y-33955346D02*
X131449454Y-33955346D01*
X142303400Y-30435248D02*
X138783302Y-33955346D01*
X142303400Y-29459952D02*
X142303400Y-30435248D01*
X131449454Y-33955346D02*
X122741200Y-42663600D01*
X142016048Y-29172600D02*
X142303400Y-29459952D01*
X141190752Y-29172600D02*
X142016048Y-29172600D01*
X140507152Y-29856200D02*
X141190752Y-29172600D01*
X137724900Y-29856200D02*
X140507152Y-29856200D01*
X137724900Y-29856200D02*
X139862000Y-29856200D01*
X139862000Y-29856200D02*
X139953400Y-29947600D01*
%TO.N,/LED_DATA*%
X104641200Y-62738000D02*
X89891200Y-62738000D01*
X106341200Y-61038000D02*
X104641200Y-62738000D01*
X106341200Y-48018000D02*
X106341200Y-61038000D01*
X108441200Y-66028000D02*
X108441200Y-48018000D01*
X109991200Y-67578000D02*
X108441200Y-66028000D01*
X134100600Y-67578000D02*
X109991200Y-67578000D01*
X144869400Y-56809200D02*
X134100600Y-67578000D01*
X108441200Y-48018000D02*
X106341200Y-48018000D01*
X144869400Y-40741600D02*
X144869400Y-56809200D01*
%TO.N,VCC*%
X131191000Y-41122600D02*
X139799800Y-41122600D01*
X118204200Y-54109400D02*
X131191000Y-41122600D01*
X118204200Y-55782899D02*
X118204200Y-54109400D01*
X116179600Y-57145000D02*
X116842099Y-57145000D01*
X116842099Y-57145000D02*
X118204200Y-55782899D01*
%TO.N,GND*%
X115632200Y-51091800D02*
X116407200Y-51866800D01*
X112942100Y-52494252D02*
X114344552Y-51091800D01*
X114344552Y-51091800D02*
X115632200Y-51091800D01*
X112942100Y-55894999D02*
X112942100Y-52494252D01*
X113904600Y-56195000D02*
X113242101Y-56195000D01*
X113242101Y-56195000D02*
X112942100Y-55894999D01*
%TO.N,Net-(U4-PROG)*%
X117195600Y-55841499D02*
X117195600Y-54305200D01*
X117195600Y-54305200D02*
X114757200Y-51866800D01*
X116179600Y-56195000D02*
X116842099Y-56195000D01*
X116842099Y-56195000D02*
X117195600Y-55841499D01*
%TO.N,VCC*%
X115563400Y-57761200D02*
X116179600Y-57145000D01*
X115563400Y-61264800D02*
X115563400Y-57761200D01*
%TO.N,/VBAT*%
X111563400Y-59486200D02*
X113904600Y-57145000D01*
X111563400Y-61264800D02*
X111563400Y-59486200D01*
X116033800Y-65735200D02*
X111563400Y-61264800D01*
X116128800Y-65735200D02*
X116033800Y-65735200D01*
%TO.N,/VBAT_RAW*%
X114573400Y-66979800D02*
X113328800Y-65735200D01*
X116668944Y-66979800D02*
X114573400Y-66979800D01*
X119139200Y-64509544D02*
X116668944Y-66979800D01*
X119139200Y-56794400D02*
X119139200Y-64509544D01*
X119139200Y-58820165D02*
X119139200Y-56794400D01*
X133934965Y-65994400D02*
X126313435Y-65994400D01*
X126313435Y-65994400D02*
X119139200Y-58820165D01*
X141109200Y-56794400D02*
X141109200Y-58820165D01*
X141109200Y-58820165D02*
X133934965Y-65994400D01*
%TO.N,GND*%
X142749800Y-44168800D02*
X130124200Y-56794400D01*
X142749800Y-41122600D02*
X142749800Y-44168800D01*
%TO.N,VCC*%
X139799800Y-35297200D02*
X139799800Y-41122600D01*
X141110800Y-33986200D02*
X139799800Y-35297200D01*
%TO.N,/LED_DATA*%
X146519400Y-40741600D02*
X144869400Y-40741600D01*
X147060800Y-40200200D02*
X146519400Y-40741600D01*
X147060800Y-35036200D02*
X147060800Y-40200200D01*
X146010800Y-33986200D02*
X147060800Y-35036200D01*
%TO.N,/THERM_OUT*%
X135560800Y-35459400D02*
X136397400Y-35459400D01*
X134656746Y-34555346D02*
X135560800Y-35459400D01*
X136002930Y-31878000D02*
X135514165Y-31389235D01*
X136372000Y-31878000D02*
X136002930Y-31878000D01*
%TO.N,GND*%
X138194445Y-28906200D02*
X138355128Y-29066883D01*
X138077952Y-28906200D02*
X138194445Y-28906200D01*
%TO.N,/TURB_OUT*%
X139889400Y-27890472D02*
X138955128Y-26956200D01*
X139889400Y-27966400D02*
X139889400Y-27890472D01*
%TO.N,/+3.3V*%
X139929200Y-26356200D02*
X135001000Y-26356200D01*
X141539400Y-27966400D02*
X139929200Y-26356200D01*
%TO.N,Net-(U3-+)*%
X133886400Y-27991800D02*
X133887400Y-27990800D01*
X133272200Y-27991800D02*
X133886400Y-27991800D01*
%TO.N,/+3.3V*%
X133088800Y-31211000D02*
X134487400Y-31211000D01*
X131622200Y-29744400D02*
X133088800Y-31211000D01*
X130821800Y-30544800D02*
X125527000Y-30544800D01*
X131622200Y-29744400D02*
X130821800Y-30544800D01*
X125527000Y-30544800D02*
X124726600Y-29744400D01*
%TO.N,Net-(D1-K)*%
X126402000Y-29769800D02*
X126376600Y-29744400D01*
X128206400Y-29769800D02*
X126402000Y-29769800D01*
%TO.N,GND*%
X128655114Y-28994800D02*
X129430114Y-29769800D01*
X127431800Y-28461400D02*
X127965200Y-28994800D01*
X129430114Y-29769800D02*
X129781400Y-29769800D01*
X127431800Y-27482800D02*
X127431800Y-28461400D01*
X128967400Y-27191400D02*
X127723200Y-27191400D01*
X127723200Y-27191400D02*
X127431800Y-27482800D01*
X129742400Y-27966400D02*
X128967400Y-27191400D01*
X127965200Y-28994800D02*
X128655114Y-28994800D01*
X129767800Y-27991800D02*
X129742400Y-27966400D01*
X131622200Y-27991800D02*
X129767800Y-27991800D01*
%TO.N,/+3.3V*%
X130872600Y-28994800D02*
X129220800Y-28994800D01*
X131622200Y-29744400D02*
X130872600Y-28994800D01*
%TO.N,Net-(U3-+)*%
X133272200Y-27991800D02*
X133272200Y-29744400D01*
%TO.N,GND*%
X132657800Y-26956200D02*
X131622200Y-27991800D01*
X138687400Y-27537000D02*
X138106600Y-26956200D01*
X138077952Y-28906200D02*
X138687400Y-28296752D01*
X135449900Y-28906200D02*
X138077952Y-28906200D01*
X138687400Y-28296752D02*
X138687400Y-27537000D01*
X138106600Y-26956200D02*
X132657800Y-26956200D01*
%TO.N,/+3.3V*%
X137124900Y-27356200D02*
X137724900Y-27956200D01*
X134746600Y-27356200D02*
X137124900Y-27356200D01*
X134487400Y-27615400D02*
X134746600Y-27356200D01*
X134487400Y-31211000D02*
X134487400Y-27615400D01*
X137247000Y-32653000D02*
X135929400Y-32653000D01*
X135929400Y-32653000D02*
X134487400Y-31211000D01*
X138022000Y-31878000D02*
X137247000Y-32653000D01*
%TO.N,/TDS_IN-*%
X136316300Y-30722600D02*
X135449900Y-29856200D01*
X140828400Y-30722600D02*
X136316300Y-30722600D01*
X141603400Y-29947600D02*
X140828400Y-30722600D01*
%TO.N,/TURB_OUT*%
X140664400Y-28741400D02*
X139889400Y-27966400D01*
X141952048Y-28741400D02*
X140664400Y-28741400D01*
X142077048Y-28616400D02*
X141952048Y-28741400D01*
X143699400Y-28616400D02*
X142077048Y-28616400D01*
%TO.N,/+3.3V*%
X143699400Y-27966400D02*
X141539400Y-27966400D01*
X129220800Y-28994800D02*
X128192400Y-27966400D01*
%TO.N,/SD_CLK*%
X107391200Y-50038000D02*
X106992000Y-50038000D01*
X106992000Y-50038000D02*
X106941200Y-49987200D01*
%TD*%
M02*
